<svg version="1.1" xmlns="http://www.w3.org/2000/svg" xmlns:xlink="http://www.w3.org/1999/xlink" width="96" height="100" viewBox="-48 -50 96 100">
  <polygon fill="#FFAB19" points="-22,-18 -10,-46 -2,-18"/>
  <polygon fill="#FFAB19" points="22,-18 10,-46 2,-18"/>
  <polygon fill="#FFD5A6" points="-18,-20 -10,-38 -5,-18"/>
  <polygon fill="#FFD5A6" points="18,-20 10,-38 5,-18"/>
  <ellipse fill="#FFAB19" cx="0" cy="10" rx="32" ry="30"/>
  <ellipse fill="#FFFFFF" cx="-11" cy="-2" rx="6" ry="7"/>
  <ellipse fill="#FFFFFF" cx="11" cy="-2" rx="6" ry="7"/>
  <ellipse fill="#111111" cx="-10" cy="0" rx="2.5" ry="3"/>
  <ellipse fill="#111111" cx="12" cy="0" rx="2.5" ry="3"/>
  <polygon fill="#CF63CF" points="0,8 -5,15 5,15"/>
  <path fill="none" stroke="#111111" stroke-width="1.5" stroke-linecap="round" d="M0,15 L0,20 M-16,8 L-30,4 M-16,12 L-30,12 M-16,16 L-30,20 M16,8 L30,4 M16,12 L30,12 M16,16 L30,20"/>
</svg>
